# 3ds Max Wavefront OBJ Exporter v0.99 - (c)2007 guruware
# File Created: 21.03.2023 16:57:27

mtllib ventanas.mtl

#
# object Plane_005_Plane_001
#

v  -1.9148 0.5768 -1.0489
v  -1.9148 0.5768 -0.5148
v  -1.9148 1.1959 -1.0489
v  -1.9148 1.1959 -0.5148
# 4 vertices

vn -1.0000 0.0000 -0.0000
vn -1.0000 0.0000 -0.0000
vn -1.0000 0.0000 -0.0000
vn -1.0000 0.0000 -0.0000
vn -1.0000 0.0000 -0.0000
vn -1.0000 0.0000 -0.0000
# 6 vertex normals

vt 0.0704 0.2809 0.0000
vt 0.2888 0.2809 0.0000
vt 0.2888 0.6416 0.0000
vt 0.0704 0.6416 0.0000
# 4 texture coords

o Plane_005_Plane_001
g Plane_005_Plane_001
usemtl Material_002
s off
f 2/2/1 4/3/2 3/4/3 
f 3/4/4 1/1/5 2/2/6 
# 2 faces

#
# object Plane_004_Plane_001
#

v  -1.9148 0.5768 0.5234
v  -1.9148 0.5768 1.0575
v  -1.9148 1.1959 0.5234
v  -1.9148 1.1959 1.0575
# 4 vertices

vn -1.0000 0.0000 -0.0000
vn -1.0000 0.0000 -0.0000
vn -1.0000 0.0000 -0.0000
vn -1.0000 0.0000 -0.0000
vn -1.0000 0.0000 -0.0000
vn -1.0000 0.0000 -0.0000
# 6 vertex normals

vt 0.0704 0.2809 0.0000
vt 0.2888 0.2809 0.0000
vt 0.2888 0.6416 0.0000
vt 0.0704 0.6416 0.0000
# 4 texture coords

o Plane_004_Plane_001
g Plane_004_Plane_001
usemtl Material_002
s off
f 6/6/7 8/7/8 7/8/9 
f 7/8/10 5/5/11 6/6/12 
# 2 faces

#
# object Plane_003_Plane_001
#

v  -1.0209 0.5768 1.4753
v  -0.4868 0.5768 1.4753
v  -1.0209 1.1959 1.4753
v  -0.4868 1.1959 1.4753
# 4 vertices

vn 0.0000 0.0000 1.0000
vn 0.0000 0.0000 1.0000
vn 0.0000 0.0000 1.0000
vn 0.0000 0.0000 1.0000
vn 0.0000 0.0000 1.0000
vn 0.0000 0.0000 1.0000
# 6 vertex normals

vt 0.0704 0.2809 0.0000
vt 0.2888 0.2809 0.0000
vt 0.2888 0.6416 0.0000
vt 0.0704 0.6416 0.0000
# 4 texture coords

o Plane_003_Plane_001
g Plane_003_Plane_001
usemtl Material_002
s off
f 10/10/13 12/11/14 11/12/15 
f 11/12/16 9/9/17 10/10/18 
# 2 faces

#
# object Plane_002_Plane_001
#

v  1.9150 0.5768 -0.5137
v  1.9150 0.5768 -1.0478
v  1.9150 1.1959 -0.5137
v  1.9150 1.1959 -1.0478
# 4 vertices

vn 1.0000 0.0000 -0.0000
vn 1.0000 0.0000 -0.0000
vn 1.0000 0.0000 -0.0000
vn 1.0000 0.0000 -0.0000
vn 1.0000 0.0000 -0.0000
vn 1.0000 0.0000 -0.0000
# 6 vertex normals

vt 0.0704 0.2809 0.0000
vt 0.2888 0.2809 0.0000
vt 0.2888 0.6416 0.0000
vt 0.0704 0.6416 0.0000
# 4 texture coords

o Plane_002_Plane_001
g Plane_002_Plane_001
usemtl Material_002
s off
f 14/14/19 16/15/20 15/16/21 
f 15/16/22 13/13/23 14/14/24 
# 2 faces

#
# object Plane_001
#

v  1.9150 0.5768 1.0538
v  1.9150 0.5768 0.5197
v  1.9150 1.1959 1.0538
v  1.9150 1.1959 0.5197
# 4 vertices

vn 1.0000 0.0000 -0.0000
vn 1.0000 0.0000 -0.0000
vn 1.0000 0.0000 -0.0000
vn 1.0000 0.0000 -0.0000
vn 1.0000 0.0000 -0.0000
vn 1.0000 0.0000 -0.0000
# 6 vertex normals

vt 0.0704 0.2809 0.0000
vt 0.2888 0.2809 0.0000
vt 0.2888 0.6416 0.0000
vt 0.0704 0.6416 0.0000
# 4 texture coords

o Plane_001
g Plane_001
usemtl Material_002
s off
f 18/18/25 20/19/26 19/20/27 
f 19/20/28 17/17/29 18/18/30 
# 2 faces

