# Blender v3.0.1 OBJ File: ''
# www.blender.org
mtllib sign.mtl
o uploads_files_1881045_Little_Signpost_OBJ
v -11.273466 172.022079 5.061943
v -11.071356 172.522476 5.061943
v -11.065557 172.518570 -5.064481
v -11.273455 172.020798 -5.064481
v -10.919170 172.169998 5.443539
v -11.273466 0.290243 5.072454
v -10.902407 0.290243 5.443511
v -0.449565 183.000259 5.443536
v -0.699769 183.248489 5.073506
v -0.178454 183.262741 5.078571
v 10.918425 172.161301 5.443528
v 11.061054 172.515594 5.062203
v 0.301891 183.250290 -5.076092
v -0.219611 183.255157 -5.081158
v -10.918896 172.164993 -5.445923
v -10.902395 0.290245 -5.445951
v -11.273455 0.290245 -5.074894
v 0.056145 182.997299 -5.445928
v 11.066551 172.519409 -5.064459
v 10.918694 172.166107 -5.445937
v 10.902123 0.290243 5.443500
v 11.273181 0.290243 5.072441
v 11.273181 172.019791 5.062203
v 11.273194 172.021057 -5.064459
v 11.273194 0.290245 -5.074906
v 10.902134 0.290245 -5.445966
v -0.977162 0.290243 5.443507
v 0.432132 0.290245 -5.445958
v 62.613235 110.570068 13.294461
v 62.340160 110.297005 13.294461
v 62.342613 110.297035 5.771667
v 62.615696 110.570091 5.771667
v 62.340118 110.570030 13.567524
v 62.614746 130.885880 13.294496
v 62.341629 130.885880 13.567523
v -50.181358 110.570076 13.567524
v -50.273472 110.297005 13.294452
v 62.616341 152.271057 13.294495
v 62.343224 152.271057 13.567521
v -76.833694 130.892380 13.567523
v -77.043457 130.699829 13.299435
v -77.048866 131.078888 13.299434
v -50.398048 152.281998 13.567523
v -50.638920 152.411697 13.282113
v -77.042999 131.077774 5.766407
v -77.039108 130.699066 5.766407
v -50.271011 110.297035 5.771677
v -50.178726 110.570107 5.498606
v 62.342712 110.570107 5.498605
v -76.827438 130.890579 5.498604
v -50.228027 152.412674 5.775524
v -49.957336 152.286041 5.498603
v 62.344173 130.885880 5.498604
v 62.617195 130.885880 5.771721
v 62.345764 152.271057 5.498603
v 62.618790 152.271057 5.771720
v 62.343281 152.544113 13.294440
v 62.345734 152.544113 5.771676
v -50.263256 152.544113 13.285336
v -49.852570 152.544113 5.778910
vt 0.142321 0.863920
vt 0.096135 0.876127
vt 0.095415 0.873674
vt 0.148921 0.061502
vt 0.144224 0.864654
vt 0.142986 0.865380
vt 0.189699 0.922852
vt 0.185361 0.925270
vt 0.289408 0.959081
vt 0.246265 0.878486
vt 0.291694 0.957267
vt 0.341873 0.932873
vt 0.292712 0.959948
vt 0.094757 0.061703
vt 0.097275 0.061693
vt 0.132505 0.951810
vt 0.092919 0.875121
vt 0.343014 0.929220
vt 0.294959 0.868469
vt 0.296718 0.867164
vt 0.253830 0.062025
vt 0.246386 0.874688
vt 0.243697 0.874944
vt 0.294214 0.866042
vt 0.307774 0.062520
vt 0.196828 0.061430
vt 0.395927 0.879176
vt 0.358167 0.063088
vt 0.412471 0.064107
vt 0.305137 0.062533
vt 0.146239 0.061555
vt 0.340166 0.930568
vt 0.629096 0.242514
vt 0.595850 0.242180
vt 0.595914 0.240556
vt 0.630143 0.242337
vt 0.710969 0.244012
vt 0.630155 0.244077
vt 0.628769 0.243988
vt 0.631544 0.747021
vt 0.629997 0.747398
vt 0.711003 0.242332
vt 0.796805 0.245619
vt 0.560120 0.891806
vt 0.708598 0.865940
vt 0.788613 0.741574
vt 0.710194 0.866448
vt 0.709377 0.867693
vt 0.739807 0.884792
vt 0.739299 0.886238
vt 0.596910 0.741411
vt 0.598545 0.741895
vt 0.527222 0.877543
vt 0.525772 0.876526
vt 0.741331 0.885530
vt 0.818694 0.747541
vt 0.820720 0.747072
vt 0.630270 0.209059
vt 0.711378 0.207501
vt 0.711363 0.209206
vt 0.797325 0.208871
vt 0.797298 0.210580
vt 0.798420 0.244248
vt 0.831654 0.246763
vt 0.798542 0.245939
vt 0.789099 0.740028
vt 0.787856 0.740533
vt 0.819276 0.745971
vt 0.833284 0.246628
vt 0.512887 0.241412
vt 0.594376 0.241566
vt 0.436498 0.759331
vt 0.421522 0.243816
vt 0.796810 0.243885
vt 0.831882 0.245154
vt 0.243330 0.879227
vt 0.135034 0.950489
vt 0.256263 0.062080
vt 0.561831 0.892156
vt 0.630278 0.207354
vn -0.8631 -0.1472 0.4831
vn -0.7166 0.6960 -0.0452
vn -0.9992 0.0046 -0.0393
vn -0.0384 -0.0923 0.9950
vn -0.0296 0.0038 0.9996
vn -0.5181 0.6975 0.4952
vn -0.0010 -0.0009 1.0000
vn -0.7009 0.7132 0.0115
vn 0.7049 0.7079 0.0443
vn 0.6731 0.7367 0.0652
vn -0.6845 0.7262 -0.0641
vn -0.0357 -0.0846 -0.9958
vn -0.9942 -0.0989 -0.0434
vn 0.0040 -0.0010 -1.0000
vn -0.7970 0.0393 -0.6027
vn 0.7112 0.7024 -0.0282
vn 0.0285 0.0046 -0.9996
vn 0.0346 -0.0853 0.9958
vn 0.9992 0.0042 0.0394
vn 0.5786 0.5499 0.6023
vn 0.9994 -0.0013 -0.0346
vn 0.0370 -0.0927 -0.9950
vn 0.0000 -0.0631 0.9980
vn -0.0000 -0.0634 -0.9980
vn 0.9934 -0.1003 -0.0548
vn -0.9939 -0.0955 0.0549
vn 0.5343 0.5573 -0.6356
vn 0.7501 -0.0220 0.6609
vn 0.0029 -0.9994 -0.0354
vn 0.9993 -0.0134 -0.0348
vn -0.0038 0.0000 1.0000
vn 0.0022 -0.0119 0.9999
vn 0.0364 -0.7364 0.6755
vn -0.0045 -0.0173 0.9998
vn -0.1453 -0.9890 0.0275
vn 0.8700 -0.3429 0.3544
vn 0.0014 0.0076 1.0000
vn -0.6132 -0.7891 0.0359
vn -0.8035 -0.0928 0.5881
vn -0.6216 0.7832 0.0097
vn -0.6357 0.7714 0.0306
vn -0.6316 0.7737 -0.0491
vn -0.6120 -0.7902 -0.0333
vn -0.0032 -0.0179 -0.9998
vn -0.1458 -0.9889 -0.0296
vn 0.0012 -0.0005 -1.0000
vn -0.6211 0.7816 -0.0577
vn -0.0052 0.0176 -0.9998
vn -0.0038 0.0002 -1.0000
vn 0.9990 -0.0001 -0.0440
vn 0.0007 0.0075 -1.0000
vn 0.9993 0.0123 -0.0344
vn 0.5676 0.4800 0.6689
vn 0.0040 0.9992 -0.0393
vn 0.0042 0.9992 0.0386
vn -0.0005 0.9993 0.0369
vn -0.5409 0.5755 0.6134
vn -0.2979 0.7542 -0.5852
vn 0.6725 -0.0075 -0.7401
vn 0.9937 -0.1037 0.0433
usemtl pCube1SG
s 1
f 1/1/1 3/2/2 4/3/3
f 1/1/1 7/4/4 5/5/5
f 2/6/6 8/7/7 9/8/8
f 8/9/7 12/10/9 10/11/10
f 10/11/10 14/12/11 9/13/8
f 4/3/3 16/14/12 17/15/13
f 3/2/2 18/16/14 15/17/15
f 18/18/14 19/19/16 20/20/17
f 21/21/18 23/22/19 11/23/20
f 12/10/9 24/24/21 19/19/16
f 24/24/21 26/25/22 20/20/17
f 5/5/5 27/26/23 8/7/7
f 9/8/8 3/2/2 2/6/6
f 15/27/15 28/28/24 16/29/12
f 23/22/19 25/30/25 24/24/21
f 4/3/3 6/31/26 1/1/1
f 12/10/9 13/32/27 10/11/10
f 28/28/24 20/20/17 26/25/22
f 27/26/23 11/23/20 8/7/7
f 1/1/1 5/5/5 2/6/6
f 10/11/10 9/13/8 8/9/7
f 4/3/3 3/2/2 15/17/15
f 14/12/11 13/32/27 18/18/14
f 11/23/20 23/22/19 12/10/9
f 19/19/16 24/24/21 20/20/17
f 29/33/28 31/34/29 32/35/30
f 29/36/28 35/37/31 33/38/32
f 30/39/33 36/40/34 37/41/35
f 34/42/36 39/43/37 35/37/31
f 36/40/34 41/44/38 37/41/35
f 40/45/39 44/46/40 42/47/41
f 41/48/38 45/49/42 46/50/43
f 48/51/44 31/34/29 47/52/45
f 48/51/44 46/53/43 50/54/46
f 50/55/46 51/56/47 52/57/48
f 32/58/30 53/59/49 54/60/50
f 54/60/50 55/61/51 56/62/52
f 38/63/53 58/64/54 57/65/55
f 39/43/37 59/66/56 43/67/57
f 59/66/56 51/56/47 44/46/40
f 60/68/58 55/69/51 52/57/48
f 35/37/31 36/40/34 33/38/32
f 37/41/35 46/53/43 47/52/45
f 48/51/44 53/70/49 49/71/59
f 54/60/50 29/36/28 32/58/30
f 57/65/55 60/68/58 59/66/56
f 30/39/33 47/52/45 31/34/29
f 44/46/40 45/49/42 42/47/41
f 53/70/49 52/72/48 55/73/51
f 54/60/50 38/74/53 34/42/36
f 35/37/31 43/67/57 40/45/39
f 29/33/28 33/38/32 30/39/33
f 42/47/41 41/48/38 40/45/39
f 46/50/43 45/49/42 50/55/46
f 31/34/29 49/71/59 32/35/30
f 38/63/53 57/65/55 39/43/37
f 43/67/57 59/66/56 44/46/40
f 51/56/47 60/68/58 52/57/48
f 55/69/51 58/64/54 56/75/52
f 1/1/1 2/6/6 3/2/2
f 1/1/1 6/31/26 7/4/4
f 2/6/6 5/5/5 8/7/7
f 8/9/7 11/76/20 12/10/9
f 10/11/10 13/32/27 14/12/11
f 4/3/3 15/17/15 16/14/12
f 3/2/2 14/77/11 18/16/14
f 18/18/14 13/32/27 19/19/16
f 21/21/18 22/78/60 23/22/19
f 12/10/9 23/22/19 24/24/21
f 24/24/21 25/30/25 26/25/22
f 5/5/5 7/4/4 27/26/23
f 9/8/8 14/77/11 3/2/2
f 15/27/15 18/18/14 28/28/24
f 23/22/19 22/78/60 25/30/25
f 4/3/3 17/15/13 6/31/26
f 12/10/9 19/19/16 13/32/27
f 28/28/24 18/18/14 20/20/17
f 27/26/23 21/21/18 11/23/20
f 29/33/28 30/39/33 31/34/29
f 29/36/28 34/42/36 35/37/31
f 30/39/33 33/38/32 36/40/34
f 34/42/36 38/74/53 39/43/37
f 36/40/34 40/79/39 41/44/38
f 40/45/39 43/67/57 44/46/40
f 41/48/38 42/47/41 45/49/42
f 48/51/44 49/71/59 31/34/29
f 48/51/44 47/52/45 46/53/43
f 50/55/46 45/49/42 51/56/47
f 32/58/30 49/80/59 53/59/49
f 54/60/50 53/59/49 55/61/51
f 38/63/53 56/75/52 58/64/54
f 39/43/37 57/65/55 59/66/56
f 59/66/56 60/68/58 51/56/47
f 60/68/58 58/64/54 55/69/51
f 35/37/31 40/45/39 36/40/34
f 37/41/35 41/44/38 46/53/43
f 48/51/44 50/54/46 53/70/49
f 54/60/50 34/42/36 29/36/28
f 57/65/55 58/64/54 60/68/58
f 30/39/33 37/41/35 47/52/45
f 44/46/40 51/56/47 45/49/42
f 53/70/49 50/54/46 52/72/48
f 54/60/50 56/62/52 38/74/53
f 35/37/31 39/43/37 43/67/57
